# xmcd
#
# Track frame offsets: 
#        150
#        14157
#        30865
#        45087
#        60517
#        74452
#        88075
#        105192
#        120325
#        136315
#        147407
#        161837
#
# Disc length: 2319 seconds
#
# Revision: 1
# Processed by: cddbd v1.5.2PL0 Copyright (c) Steve Scherf et al.
# Submitted via: ExactAudioCopy v0.99pb5
#
DISCID=96090d0c
DTITLE=Tom Astor - Sturm und Drang
DYEAR=1992
DGENRE=Country
TTITLE0=Du bist da
TTITLE1=Ich bin kein Mann fürs Paradies
TTITLE2=Ich mag deine Fehler
TTITLE3=Harte Zeiten (Holz geht nicht unter)
TTITLE4=Ich bin verrückt nach Dir
TTITLE5=Nur wer die Hölle kennt
TTITLE6=Sturm und Drang
TTITLE7=Ich bin frei,wieder frei
TTITLE8=Das war unsere Zeit
TTITLE9=Manchmal will sie nur einfach Frau sein
TTITLE10=Den Kindern gehts gut
TTITLE11=Zuviel du
EXTD=
EXTT0=
EXTT1=
EXTT2=
EXTT3=
EXTT4=
EXTT5=
EXTT6=
EXTT7=
EXTT8=
EXTT9=
EXTT10=
EXTT11=
PLAYORDER=
